<svg width="20" height="16" viewBox="0 0 20 16" fill="none" xmlns="http://www.w3.org/2000/svg">
<path d="M11.9999 0.999878L11.9999 14.9999" stroke="white" stroke-width="2"/>
<path d="M1.98501 10.8512C3.09334 10.5051 3.99988 9.55469 3.99988 7.99988C3.99988 6.44507 3.09334 5.49462 1.98501 5.14852C1.45783 4.9839 0.999878 4.55216 0.999878 3.99988V1.99988C0.999878 1.44759 1.44759 0.999878 1.99988 0.999878H17.9999C18.5522 0.999878 18.9999 1.44759 18.9999 1.99988V3.99988C18.9999 4.55216 18.5419 4.9839 18.0147 5.14852C16.9064 5.49462 15.9999 6.44507 15.9999 7.99988C15.9999 9.55469 16.9064 10.5051 18.0147 10.8512C18.5419 11.0159 18.9999 11.4476 18.9999 11.9999V13.9999C18.9999 14.5522 18.5522 14.9999 17.9999 14.9999H1.99988C1.44759 14.9999 0.999878 14.5522 0.999878 13.9999V11.9999C0.999878 11.4476 1.45783 11.0159 1.98501 10.8512Z" stroke="white" stroke-width="2"/>
</svg>
