<svg width="40" height="40" viewBox="0 0 40 40" fill="none" xmlns="http://www.w3.org/2000/svg">
<rect width="40" height="40" rx="4" fill="#01416C"/>
<path d="M21.9999 13L21.9999 27" stroke="white" stroke-width="2"/>
<path d="M11.985 22.8514C13.0933 22.5053 13.9999 21.5548 13.9999 20C13.9999 18.4452 13.0933 17.4947 11.985 17.1486C11.4578 16.984 10.9999 16.5523 10.9999 16V14C10.9999 13.4477 11.4476 13 11.9999 13H27.9999C28.5522 13 28.9999 13.4477 28.9999 14V16C28.9999 16.5523 28.5419 16.984 28.0147 17.1486C26.9064 17.4947 25.9999 18.4452 25.9999 20C25.9999 21.5548 26.9064 22.5053 28.0147 22.8514C28.5419 23.016 28.9999 23.4477 28.9999 24V26C28.9999 26.5523 28.5522 27 27.9999 27H11.9999C11.4476 27 10.9999 26.5523 10.9999 26V24C10.9999 23.4477 11.4578 23.016 11.985 22.8514Z" stroke="white" stroke-width="2"/>
</svg>
