<svg width="40" height="40" viewBox="0 0 40 40" fill="none" xmlns="http://www.w3.org/2000/svg">
<rect width="40" height="40" rx="4" fill="#01416C"/>
<path d="M14.6706 11.1457C14.7233 11.0555 14.8199 11 14.9243 11H16.5071C16.716 11 16.9091 11.1109 17.0144 11.2914L17.6368 12.3584C17.751 12.5541 17.6098 12.8 17.3831 12.8H15.9743C15.8699 12.8 15.7733 12.8555 15.7206 12.9457L14.7556 14.6L13.7056 16.4L12.6556 18.2L11.6056 20L10.8036 21.3748C10.6903 21.5691 10.4097 21.5691 10.2963 21.3748L9.67262 20.3056C9.56595 20.1227 9.56595 19.8966 9.67262 19.7137L10.5556 18.2L11.6056 16.4L12.6556 14.6L13.7056 12.8L14.6706 11.1457Z" fill="white"/>
<path d="M19.1144 14.8914C19.0091 14.7109 18.8159 14.6 18.6071 14.6H17.0243C16.9199 14.6 16.8233 14.6555 16.7706 14.7457L15.8056 16.4L14.7556 18.2L13.7056 20L12.6556 21.8L12.65 21.8097L11.7726 23.3137C11.6659 23.4966 11.6659 23.7227 11.7726 23.9056L12.3963 24.9748C12.5097 25.1691 12.7903 25.1691 12.9036 24.9748L13.7 23.6097L14.7556 21.8L15.8056 20L16.85 18.2097L17.8206 16.5457C17.8733 16.4555 17.9699 16.4 18.0743 16.4H19.4831C19.7098 16.4 19.851 16.1541 19.7368 15.9584L19.1144 14.8914Z" fill="white"/>
<path d="M14.913 29C14.8086 29 14.712 28.9445 14.6594 28.8543L13.8726 27.5056C13.7659 27.3227 13.7659 27.0966 13.8726 26.9137L14.4963 25.8445C14.6097 25.6503 14.8903 25.6503 15.0036 25.8445L15.7094 27.0543C15.762 27.1445 15.8586 27.2 15.963 27.2H17.8943H17.9056H19.9943H20.0056H22.0943H22.1056H24.1944H24.2056H25.7943C26.021 27.2 26.1622 27.4459 26.048 27.6416L25.4256 28.7086C25.3203 28.889 25.1272 29 24.9183 29H23.1556H23.1443H21.0556H21.0443H18.9556H18.9443H16.8556H16.8443H14.913Z" fill="white"/>
<path d="M29.45 18.2096L30.3274 19.7137C30.434 19.8966 30.434 20.1227 30.3274 20.3055L29.6256 21.5086C29.5203 21.689 29.3272 21.8 29.1183 21.8H27.8641C27.6381 21.8 27.4968 21.5553 27.6098 21.3596L28.3092 20.1476C28.3619 20.0563 28.3616 19.9438 28.3085 19.8528L27.35 18.2096L27.3444 18.2L26.3 16.4096L25.2444 14.6L24.2 12.8096L23.4098 11.4404C23.2968 11.2447 23.4381 11 23.6642 11H24.9071C25.116 11 25.3091 11.1109 25.4144 11.2914L26.3 12.8096L27.35 14.6096L28.4 16.4096L29.45 18.2096Z" fill="white"/>
<path d="M21.2144 11.2914C21.1091 11.1109 20.9159 11 20.7071 11H19.4557C19.229 11 19.0878 11.2459 19.202 11.4416L19.9944 12.8L21.05 14.6096L22.0944 16.4L23.1444 18.2L24.1137 19.8617C24.167 19.9531 24.167 20.0662 24.1137 20.1576L23.4132 21.3584C23.299 21.5541 23.4402 21.8 23.6669 21.8H24.9183C25.1272 21.8 25.3203 21.689 25.4256 21.5086L26.1274 20.3056C26.234 20.1227 26.234 19.8966 26.1274 19.7137L25.2444 18.2L24.1944 16.4L23.15 14.6096L22.0944 12.8L21.2144 11.2914Z" fill="white"/>
<path d="M27.5251 25.1062C27.4202 25.288 27.2263 25.4 27.0165 25.4H25.2556H23.1444H21.0443H18.9556H18.9443H17.013C16.9086 25.4 16.812 25.3445 16.7594 25.2543L15.9726 23.9056C15.8659 23.7227 15.8659 23.4966 15.9726 23.3137L16.5963 22.2445C16.7097 22.0503 16.9903 22.0503 17.1036 22.2445L17.8094 23.4543C17.862 23.5445 17.9586 23.6 18.063 23.6H19.9943H22.1056H24.1944H26.2944H27.8859C28.1119 23.6 28.2532 23.8447 28.1402 24.0404L27.5251 25.1062Z" fill="white"/>
</svg>
