<svg width="40" height="40" viewBox="0 0 40 40" fill="none" xmlns="http://www.w3.org/2000/svg">
<rect width="40" height="40" rx="4" fill="#01416C"/>
<path d="M11.0002 16C11.0002 18.7614 13.2388 21 16.0002 21C18.7616 21 21.0002 18.7614 21.0002 16C21.0002 13.2386 18.7616 11 16.0002 11C13.2388 11 11.0002 13.2386 11.0002 16Z" stroke="white" stroke-width="2" stroke-linecap="round" stroke-linejoin="round"/>
<path d="M24.0001 17.5C24.0001 18.8807 25.1194 20 26.5001 20C27.8808 20 29.0001 18.8807 29.0001 17.5C29.0001 16.1193 27.8808 15 26.5001 15C25.1194 15 24.0001 16.1193 24.0001 17.5Z" stroke="white" stroke-width="2" stroke-linecap="round" stroke-linejoin="round"/>
<path d="M19.0002 25.5C19.0002 27.433 20.5672 29 22.5002 29C24.4332 29 26.0002 27.433 26.0002 25.5C26.0002 23.567 24.4332 22 22.5002 22C20.5672 22 19.0002 23.567 19.0002 25.5Z" stroke="white" stroke-width="2" stroke-linecap="round" stroke-linejoin="round"/>
</svg>
