<svg width="24" height="24" viewBox="0 0 24 24" fill="none" xmlns="http://www.w3.org/2000/svg">
<path d="M6.67065 3.14569C6.72327 3.05547 6.81986 3 6.9243 3H8.50706C8.71595 3 8.90912 3.11095 9.01437 3.29138L9.63678 4.35838C9.75098 4.55415 9.60977 4.8 9.38313 4.8H7.9743C7.86986 4.8 7.77327 4.85547 7.72065 4.94569L6.75563 6.6L5.70563 8.4L4.65563 10.2L3.60564 12L2.80365 13.3748C2.69033 13.5691 2.40966 13.5691 2.29634 13.3748L1.67262 12.3056C1.56595 12.1227 1.56595 11.8966 1.67262 11.7137L2.55564 10.2L3.60564 8.4L4.65564 6.6L5.70564 4.8L6.67065 3.14569Z" fill="white"/>
<path d="M11.1144 6.89138C11.0091 6.71095 10.8159 6.6 10.6071 6.6H9.0243C8.91985 6.6 8.82327 6.65547 8.77064 6.74569L7.80563 8.4L6.75563 10.2L5.70563 12L4.65564 13.8L4.64999 13.8097L3.77262 15.3137C3.66595 15.4966 3.66595 15.7227 3.77262 15.9056L4.39634 16.9748C4.50966 17.1691 4.79033 17.1691 4.90365 16.9748L5.69999 15.6097L6.75563 13.8L7.80563 12L8.84999 10.2097L9.82064 8.54569C9.87327 8.45547 9.96985 8.4 10.0743 8.4H11.4831C11.7098 8.4 11.851 8.15415 11.7368 7.95838L11.1144 6.89138Z" fill="white"/>
<path d="M6.91302 21C6.80857 21 6.71199 20.9445 6.65936 20.8543L5.87262 19.5056C5.76595 19.3227 5.76595 19.0966 5.87262 18.9137L6.49634 17.8445C6.60965 17.6503 6.89033 17.6503 7.00364 17.8445L7.70936 19.0543C7.76199 19.1445 7.85857 19.2 7.96301 19.2H9.89435H9.90563H11.9943H12.0056H14.0943H14.1056H16.1944H16.2056H17.7943C18.021 19.2 18.1622 19.4459 18.048 19.6416L17.4256 20.7086C17.3203 20.889 17.1272 21 16.9183 21H15.1556H15.1443H13.0556H13.0443H10.9556H10.9443H8.85563H8.84435H6.91302Z" fill="white"/>
<path d="M21.45 10.2096L22.3274 11.7137C22.434 11.8966 22.434 12.1227 22.3274 12.3055L21.6256 13.5086C21.5203 13.689 21.3272 13.8 21.1183 13.8H19.8641C19.6381 13.8 19.4968 13.5553 19.6098 13.3596L20.3092 12.1476C20.3619 12.0563 20.3616 11.9438 20.3085 11.8528L19.35 10.2096L19.3444 10.2L18.3 8.40961L17.2444 6.6L16.2 4.80961L15.4098 3.44044C15.2968 3.24467 15.4381 3 15.6642 3H16.9071C17.116 3 17.3091 3.11095 17.4144 3.29138L18.3 4.80961L19.35 6.60961L20.4 8.40961L21.45 10.2096Z" fill="white"/>
<path d="M13.2144 3.29138C13.1091 3.11095 12.9159 3 12.7071 3H11.4557C11.229 3 11.0878 3.24585 11.202 3.44162L11.9944 4.8L13.05 6.60963L14.0944 8.4L15.1444 10.2L16.1137 11.8617C16.167 11.9531 16.167 12.0662 16.1137 12.1576L15.4132 13.3584C15.299 13.5541 15.4402 13.8 15.6669 13.8H16.9183C17.1272 13.8 17.3203 13.689 17.4256 13.5086L18.1274 12.3056C18.234 12.1227 18.234 11.8966 18.1274 11.7137L17.2444 10.2L16.1944 8.4L15.15 6.60963L14.0944 4.8L13.2144 3.29138Z" fill="white"/>
<path d="M19.5251 17.1062C19.4202 17.288 19.2263 17.4 19.0165 17.4H17.2556H15.1444H13.0443H10.9556H10.9443H9.01302C8.90857 17.4 8.81199 17.3445 8.75936 17.2543L7.97262 15.9056C7.86594 15.7227 7.86594 15.4966 7.97262 15.3137L8.59634 14.2445C8.70965 14.0503 8.99033 14.0503 9.10364 14.2445L9.80936 15.4543C9.86199 15.5445 9.95857 15.6 10.063 15.6H11.9943H14.1056H16.1944H18.2944H19.8859C20.1119 15.6 20.2532 15.8447 20.1402 16.0404L19.5251 17.1062Z" fill="white"/>
</svg>
