<svg width="24" height="24" viewBox="0 0 24 24" fill="none" xmlns="http://www.w3.org/2000/svg">
<path d="M3.00021 8C3.00021 10.7614 5.23878 13 8.00021 13C10.7616 13 13.0002 10.7614 13.0002 8C13.0002 5.23858 10.7616 3 8.00021 3C5.23878 3 3.00021 5.23858 3.00021 8Z" stroke="white" stroke-width="2" stroke-linecap="round" stroke-linejoin="round"/>
<path d="M16.0001 9.5C16.0001 10.8807 17.1194 12 18.5001 12C19.8808 12 21.0001 10.8807 21.0001 9.5C21.0001 8.11929 19.8808 7 18.5001 7C17.1194 7 16.0001 8.11929 16.0001 9.5Z" stroke="white" stroke-width="2" stroke-linecap="round" stroke-linejoin="round"/>
<path d="M11.0002 17.5C11.0002 19.433 12.5672 21 14.5002 21C16.4332 21 18.0002 19.433 18.0002 17.5C18.0002 15.567 16.4332 14 14.5002 14C12.5672 14 11.0002 15.567 11.0002 17.5Z" stroke="white" stroke-width="2" stroke-linecap="round" stroke-linejoin="round"/>
</svg>
